<?xml version="1.0" encoding="UTF-8"?>
<!DOCTYPE svg PUBLIC "-//W3C//DTD SVG 1.1//EN" "http://www.w3.org/Graphics/SVG/1.1/DTD/svg11.dtd">
<!-- Creator: CorelDRAW 2020 (64 Bit) -->
<svg xmlns="http://www.w3.org/2000/svg" xml:space="preserve" width="210mm" height="297mm" version="1.1" style="shape-rendering:geometricPrecision; text-rendering:geometricPrecision; image-rendering:optimizeQuality; fill-rule:evenodd; clip-rule:evenodd"
viewBox="0 0 21000 29700"
 xmlns:xlink="http://www.w3.org/1999/xlink"
 xmlns:xodm="http://www.corel.com/coreldraw/odm/2003">
 <defs>
  <style type="text/css">
   <![CDATA[
    .str0 {stroke:#373435;stroke-width:20;stroke-miterlimit:22.9256}
    .fil0 {fill:#373435;fill-rule:nonzero}
   ]]>
  </style>
 </defs>
 <g id="Camada_x0020_1">
  <metadata id="CorelCorpID_0Corel-Layer"/>
  <path class="fil0" d="M3596 15206.05c-514.39,2.09 -939.81,-386.14 -939.81,-861.84l0 -3743.17c-1.15,-155.31 -172.73,-149.96 -174.24,0l0 3743.17c0,564.81 500.21,1022.86 1114.05,1020.41l3302.77 -13.36c154.04,0.71 151.13,-161.34 -3.6,-159.25l-3299.17 14.04z"/>
  <path class="fil0" d="M9055.14 10538.31c-727.64,0 -1172.31,523.92 -1172.31,1275.53 0,744.64 437.96,1247.88 1172.31,1247.88l2533.06 6.96c606.48,0 1024.1,434.36 1024.1,1034.25 0,613.61 -432.07,1103.24 -1024.1,1103.12l-3534.87 -0.69c-153.77,-0.94 -153.98,158.23 -2.16,157.77l3537.03 1.49c693.76,0.25 1172.3,-544.71 1172.3,-1254.83 0,-703.28 -464.82,-1199.68 -1172.3,-1199.68l-2533.06 -6.96c-619.82,0 -1017.41,-455.04 -1017.41,-1096.28 0,-641.13 397.59,-1109.99 1017.41,-1109.99l3587.63 0c145.61,-1.28 159.24,-156.71 0.42,-158.57l-3588.05 0z"/>
  <path class="fil0" d="M13806.13 14261.49l0 -2620.05c0,-330.95 126.62,-597.57 379.48,-799.81 252.99,-202.24 586.47,-303.32 1000.31,-303.32l3097.42 0c170.37,5.24 133.9,138.35 -0.54,138.35l-3096.88 -0.46c-367.85,0 -661.16,87.35 -879.5,261.96 -218.36,174.72 -327.81,409.14 -327.81,703.28l0 2620.05c0,294.14 109.31,528.58 327.81,703.28 218.34,174.61 511.52,261.96 879.5,261.96l3097.42 0c151.88,0.6 155.96,137.2 -0.41,137.89l-3097.01 0c-413.84,0 -747.32,-101.05 -1000.31,-303.3 -252.86,-202.26 -379.48,-468.86 -379.48,-799.83z"/>
  <path class="fil0 str0" d="M14773.34 14716.42l0 -862.44 -398.58 0c-24.86,0.23 -23.23,-25.43 0.36,-25.91l825.84 0c26.72,1.51 21.48,26.37 0.23,25.91l-398.22 0c0,287.52 0,574.92 0,862.44 -0.48,21.48 -29.05,20.91 -29.63,0z"/>
  <path class="fil0 str0" d="M15561.08 13824.24l604.18 0c30.8,0.23 28,26.6 1.51,26.71l-634.74 -1.61c-262.08,9.53 -263.11,407.52 3.6,414.47l25.45 0 604.18 0 0.71 0c24.39,-1.26 28.57,17.44 13.13,24.17l-1.63 0.71 -1.75 0.57 -0.11 0 -1.98 0.46 -2.2 0.35 -0.13 0 -4.53 0.36 -48.79 -0.13 -552.15 0c-331.06,8.6 -278.8,406.48 -30.2,412.99l630.34 0c29.72,-1.4 29.38,26.95 0.23,26.6l-600.37 0c-304.94,8.24 -351.86,-375.81 -99.79,-452.7 -239.07,-75.99 -220.48,-452.95 95.04,-452.95z"/>
  <path class="fil0 str0" d="M17402.69 14273.7l0 -418.21c0.81,-25.33 29.38,-25.45 29.86,-0.11l0 408.2 787.85 0 0 -408.2c1.04,-24.4 29.15,-25.57 29.73,0.23l0 433.54 -0.12 0 0 418.21c-0.8,25.31 -29.38,25.43 -29.86,0.11l0 -408.22 -787.85 0 0 408.22c-1.03,24.4 -29.15,25.55 -29.72,-0.23l0 -433.54 0.11 0z"/>
  <path class="fil0" d="M4762.72 17002.02l-64.42 0 0 -579.63 176.68 0c31.34,0 59.32,4.5 83.98,13.49 24.66,8.99 45.27,21.17 61.79,36.54 16.54,15.37 29.16,33.37 37.87,53.97 8.7,20.6 13.05,42.8 13.05,66.58 0,26.1 -4.07,50.32 -12.19,72.67 -8.13,22.33 -20.59,41.63 -37.41,57.88 -16.83,16.25 -38.16,28.86 -63.97,37.85 -25.84,9 -56.73,13.49 -92.7,13.49l-102.68 0 0 227.16zm93.12 -287.2c52.79,0 90.36,-10.6 112.7,-31.78 22.33,-21.18 33.5,-48.89 33.5,-83.11 0,-35.98 -11.17,-64.55 -33.5,-85.73 -22.34,-21.17 -58.47,-31.77 -108.35,-31.77l-97.47 0 0 232.39 93.12 0zm613.36 287.2l-64.42 0 0 -579.63 188.87 0c26.1,0 50.33,3.62 72.67,10.88 22.33,7.25 41.76,17.69 58.3,31.32 16.54,13.64 29.59,30.47 39.17,50.47 9.56,20.03 14.36,42.51 14.36,67.46 0,47.59 -14.65,85.44 -43.95,113.57 -29.3,28.16 -72.38,46.57 -129.24,55.27l217.57 250.66 -87.03 0 -214.96 -249.79 0 0.88 -51.34 0 0 248.91zm0 -308.97l98.33 0c47.58,0 82.98,-10.01 106.19,-30.02 23.21,-20.02 34.8,-46.57 34.8,-79.64 0,-35.98 -12.03,-61.79 -36.12,-77.45 -24.07,-15.67 -58.74,-23.51 -103.99,-23.51l-99.21 0 0 210.62zm992.79 41.77l-252.37 0 0 207.15 280.24 0 0 60.05 -344.66 0 0 -579.63 342.03 0 0 60.04 -277.61 0 0 192.35 252.37 0 0 60.04zm889.25 -324.62l161.89 591.82 -67.02 0 -110.54 -411.66 -182.76 406.44 -175.81 -406.44 -117.5 411.66 -62.65 0 172.31 -591.82 187.12 433.42 194.96 -433.42zm508.92 12.19l64.41 0 0 579.63 -64.41 0 0 -579.63zm937.98 327.23c0,88.19 -20.75,154.48 -62.22,198.87 -41.5,44.38 -99.08,66.58 -172.77,66.58 -41.19,0 -76.74,-6.1 -106.61,-18.27 -29.88,-12.19 -54.55,-29.74 -73.98,-52.66 -19.43,-22.92 -33.8,-50.77 -43.08,-83.56 -9.28,-32.77 -13.93,-69.76 -13.93,-110.96l0 -327.23 64.41 0 0 331.58c0,69.05 14.79,119.82 44.38,152.32 29.59,32.48 72.52,48.73 128.81,48.73 55.12,0 97.33,-15.81 126.64,-47.43 29.3,-31.62 43.94,-82.83 43.94,-153.62l0 -331.58 64.41 0 0 327.23zm897.96 -339.42l161.88 591.82 -67.02 0 -110.54 -411.66 -182.75 406.44 -175.82 -406.44 -117.5 411.66 -62.65 0 172.31 -591.82 187.12 433.42 194.97 -433.42z"/>
  <path class="fil0" d="M10700.26 16918.46c8.7,4.66 18.7,9.14 30.03,13.49 11.3,4.35 23.05,8.28 35.24,11.75 12.19,3.49 24.38,6.25 36.55,8.28 12.19,2.03 23.8,3.04 34.82,3.04 21.46,0 39.31,-2.62 53.53,-7.83 14.22,-5.22 25.66,-12.19 34.38,-20.89 8.7,-8.7 14.79,-18.57 18.26,-29.59 3.49,-11.02 5.23,-22.35 5.23,-33.94 0,-12.77 -3.33,-25.24 -10.02,-37.43 -6.67,-12.19 -15.22,-23.79 -25.66,-34.8 -10.45,-11.04 -22.19,-21.49 -35.25,-31.34 -13.07,-9.87 -25.96,-19.14 -38.73,-27.84l-53.96 -36.57c-11.02,-7.53 -22.04,-15.37 -33.08,-23.5 -11.02,-8.12 -20.89,-17.55 -29.59,-28.28 -8.7,-10.74 -15.81,-23.06 -21.31,-36.99 -5.52,-13.93 -8.28,-30.17 -8.28,-48.74 0,-19.14 3.77,-37.56 11.32,-55.27 7.54,-17.68 18.58,-33.5 33.06,-47.43 14.51,-13.91 32.07,-24.95 52.67,-33.06 20.6,-8.12 43.94,-12.19 70.06,-12.19 21.47,0 42.36,2.61 62.65,7.82 20.32,5.24 40.63,13.94 60.93,26.12l-23.5 49.6c-15.66,-6.95 -31.47,-12.61 -47.43,-16.96 -15.95,-4.35 -33.21,-6.53 -51.78,-6.53 -30.76,0 -54.99,8.12 -72.68,24.37 -17.69,16.26 -26.54,36.55 -26.54,60.93 0,13.91 3.62,26.25 10.89,36.99 7.24,10.73 16.09,20.73 26.54,30.03 10.44,9.27 21.75,17.68 33.94,25.22 12.19,7.55 23.21,15.1 33.08,22.63l50.46 36.57c12.78,9.27 25.39,19.56 37.87,30.89 12.47,11.31 23.36,23.49 32.63,36.55 9.28,13.05 16.83,26.98 22.64,41.77 5.78,14.8 8.7,30.9 8.7,48.3 0,23.8 -4.79,44.98 -14.38,63.53 -9.56,18.57 -22.61,34.38 -39.15,47.43 -16.54,13.07 -35.97,23.08 -58.32,30.03 -22.32,6.98 -45.97,10.45 -70.92,10.45 -29.59,0 -59.03,-3.91 -88.33,-11.75 -29.31,-7.84 -54.41,-18.71 -75.3,-32.64l28.73 -52.22zm1046.93 -183.64l-252.37 0 0 207.15 280.24 0 0 60.05 -344.66 0 0 -579.63 342.03 0 0 60.04 -277.61 0 0 192.35 252.37 0 0 60.04zm514.32 267.2l-64.41 0 0 -579.63 188.86 0c26.11,0 50.33,3.62 72.68,10.88 22.32,7.25 41.76,17.69 58.3,31.32 16.53,13.64 29.59,30.47 39.17,50.47 9.56,20.03 14.35,42.51 14.35,67.46 0,47.59 -14.64,85.44 -43.94,113.57 -29.31,28.16 -72.39,46.57 -129.25,55.27l217.58 250.66 -87.03 0 -214.97 -249.79 0 0.88 -51.34 0 0 248.91zm0 -308.97l98.33 0c47.59,0 82.99,-10.01 106.19,-30.02 23.21,-20.02 34.81,-46.57 34.81,-79.64 0,-35.98 -12.04,-61.79 -36.13,-77.45 -24.07,-15.67 -58.74,-23.51 -103.98,-23.51l-99.22 0 0 210.62zm1193.14 -270.66l-263.7 590.93 -277.64 -590.93 72.25 0 206.25 445.59 192.36 -445.59 70.48 0zm366.37 0l64.41 0 0 579.63 -64.41 0 0 -579.63zm982.53 525.66c-23.79,20.31 -52.07,36.56 -84.85,48.75 -32.79,12.17 -68.91,18.27 -108.35,18.27 -52.22,0 -97.63,-8.99 -136.2,-26.99 -38.6,-17.97 -70.8,-41.34 -96.61,-70.04 -25.84,-28.73 -45.11,-61.21 -57.88,-97.49 -12.76,-36.26 -19.14,-72.67 -19.14,-109.22 0,-42.36 7.82,-81.95 23.49,-118.8 15.66,-36.84 37.28,-68.75 64.84,-95.73 27.55,-26.98 60.34,-48.31 98.35,-63.97 38,-15.68 79.63,-23.5 124.89,-23.5 41.19,0 76.58,5.37 106.17,16.1 29.59,10.73 55.12,24.8 76.59,42.2l-36.55 46.13c-18,-13.34 -39.02,-24.07 -63.11,-32.19 -24.07,-8.13 -52.36,-12.19 -84.84,-12.19 -34.82,0 -67.02,5.96 -96.61,17.84 -29.59,11.9 -54.98,28.44 -76.16,49.62 -21.18,21.17 -37.71,46.7 -49.6,76.58 -11.9,29.87 -17.84,62.51 -17.84,97.91 0,35.97 5.79,68.89 17.4,98.77 11.6,29.9 28.14,55.56 49.6,77.02 21.48,21.49 47.14,38.16 77.04,50.06 29.88,11.88 62.8,17.84 98.77,17.84 34.23,0 64.11,-5.07 89.64,-15.23 25.54,-10.16 47.58,-21.91 66.15,-35.25l34.81 43.51zm716.23 -213.23l-252.38 0 0 207.15 280.25 0 0 60.05 -344.66 0 0 -579.63 342.03 0 0 60.04 -277.62 0 0 192.35 252.38 0 0 60.04zm429.02 183.64c8.7,4.66 18.7,9.14 30.03,13.49 11.3,4.35 23.05,8.28 35.24,11.75 12.19,3.49 24.38,6.25 36.55,8.28 12.19,2.03 23.8,3.04 34.82,3.04 21.46,0 39.31,-2.62 53.53,-7.83 14.22,-5.22 25.66,-12.19 34.38,-20.89 8.7,-8.7 14.79,-18.57 18.26,-29.59 3.49,-11.02 5.23,-22.35 5.23,-33.94 0,-12.77 -3.33,-25.24 -10.02,-37.43 -6.67,-12.19 -15.22,-23.79 -25.66,-34.8 -10.45,-11.04 -22.19,-21.49 -35.25,-31.34 -13.07,-9.87 -25.96,-19.14 -38.73,-27.84l-53.96 -36.57c-11.02,-7.53 -22.04,-15.37 -33.08,-23.5 -11.02,-8.12 -20.89,-17.55 -29.59,-28.28 -8.7,-10.74 -15.81,-23.06 -21.31,-36.99 -5.52,-13.93 -8.28,-30.17 -8.28,-48.74 0,-19.14 3.77,-37.56 11.32,-55.27 7.54,-17.68 18.57,-33.5 33.06,-47.43 14.51,-13.91 32.07,-24.95 52.67,-33.06 20.6,-8.12 43.94,-12.19 70.06,-12.19 21.47,0 42.36,2.61 62.65,7.82 20.32,5.24 40.63,13.94 60.92,26.12l-23.49 49.6c-15.66,-6.95 -31.47,-12.61 -47.43,-16.96 -15.95,-4.35 -33.21,-6.53 -51.79,-6.53 -30.75,0 -54.98,8.12 -72.67,24.37 -17.69,16.26 -26.54,36.55 -26.54,60.93 0,13.91 3.62,26.25 10.89,36.99 7.24,10.73 16.09,20.73 26.54,30.03 10.44,9.27 21.75,17.68 33.94,25.22 12.19,7.55 23.21,15.1 33.08,22.63l50.46 36.57c12.78,9.27 25.39,19.56 37.87,30.89 12.47,11.31 23.36,23.49 32.63,36.55 9.28,13.05 16.83,26.98 22.64,41.77 5.78,14.8 8.7,30.9 8.7,48.3 0,23.8 -4.79,44.98 -14.38,63.53 -9.56,18.57 -22.61,34.38 -39.15,47.43 -16.54,13.07 -35.97,23.08 -58.32,30.03 -22.32,6.98 -45.97,10.45 -70.92,10.45 -29.59,0 -59.03,-3.91 -88.33,-11.75 -29.31,-7.84 -54.41,-18.71 -75.3,-32.64l28.73 -52.22z"/>
  <path class="fil0 str0" d="M16348.13 14520.67l0 -488.88c0,-61.77 23.63,-111.5 70.81,-149.25 47.2,-37.74 109.43,-56.6 186.66,-56.6l577.96 0c31.8,0.98 24.99,25.82 -0.09,25.82l-577.87 -0.08c-68.65,0 -123.38,16.29 -164.12,48.87 -40.75,32.6 -61.16,76.35 -61.16,131.24l0 488.88c0,54.89 20.39,98.64 61.16,131.24 40.74,32.58 95.46,48.87 164.12,48.87l577.96 0c28.35,0.12 29.12,25.61 -0.07,25.74l-577.89 0c-77.23,0 -139.46,-18.86 -186.66,-56.59 -47.18,-37.76 -70.81,-87.49 -70.81,-149.26z"/>
 </g>
</svg>
